<?xml version="1.0" encoding="utf-8"?>
<!-- Generator: Adobe Illustrator 24.0.0, SVG Export Plug-In . SVG Version: 6.00 Build 0)  -->
<svg version="1.1" id="圖層_1" xmlns="http://www.w3.org/2000/svg" xmlns:xlink="http://www.w3.org/1999/xlink" x="0px" y="0px"
	 viewBox="0 0 87.9 96" style="enable-background:new 0 0 87.9 96;" xml:space="preserve">
<style type="text/css">
	.st0{fill:#F5EBDC;}
	.st1{fill:#FF8732;}
	.st2{fill:#D62300;}
</style>
<g id="圖層_1_1_">
	<title>Burger King Logo</title>
	<path class="st0" d="M44,96c-18.8,0-29.1-1.5-35.9-5.4c-5-2.8-8.1-7-8.1-11V26.7C0.1,20.7,4.5,14,11.4,9C17.2,4.9,27.6,0,44,0
		c28.7,0,43.9,15.5,43.9,26.7v0.2v52.6c0,4-3.1,8.3-8.1,11.1C73.2,94.5,62.8,96,44,96z"/>
</g>
<g id="圖層_2_1_">
	<path class="st1" d="M75,84.6C68.9,88,58.5,89,44.2,89s-24.8-1-30.8-4.4c-3.6-2-5.5-4.8-5.5-6.8c0-1.1,0.6-1.8,2-1.8h68.7
		c1.4,0,2,0.7,2,1.8C80.5,79.8,78.6,82.6,75,84.6z M78.5,31.5H9.8c-1.4,0-2-0.7-2-2C7.9,22.1,19.1,9,44.2,9
		c24.9,0,36.3,13.1,36.3,20.6C80.5,30.8,79.9,31.5,78.5,31.5z"/>
	<path class="st2" d="M22.5,62.3c-0.2-0.3-0.2-0.5-0.2-0.6c0-0.3,0.1-0.4,0.4-0.7c0.7-0.6,2.3-2.1,3.1-3.5c0.7-1,1-2,1-2.8
		c0-2-1.8-3.6-3.8-3.6c-1.3,0-2.5,0.7-3.3,2c-1.1,1.8-2.4,3.8-3.2,4.6c-0.3,0.2-0.4,0.3-0.6,0.3c-0.3,0-0.4-0.2-0.4-0.5v-2.3
		c0-2.3-1.4-4.1-3.8-4.1c-2.5,0-3.8,1.8-3.8,4.1v14.3c0,2.3,1.3,4.1,3.8,4.1c2.4,0,3.8-1.8,3.8-4.1v-3.3c0-0.3,0.1-0.5,0.4-0.5
		c0.4,0,0.5,0.4,0.6,0.6c0.5,1.3,2.1,4,3.5,5.6c1,1.1,2.2,1.7,3.5,1.7c2.2,0,4-1.9,4-3.9c0-1.3-0.5-2.2-1.6-3.3
		C24.6,65,23.1,63.1,22.5,62.3z"/>
	<path class="st2" d="M51.6,49.7c3.7,0,6-2.3,6-5.7c0-2.2-1.3-3.7-3.9-3.7H53c-1.4,0-2.4,0.7-2.4,2.1c0,1.3,1.1,1.9,2,1.9
		c0.4,0,0.7,0.1,0.7,0.5s-0.5,0.7-1,0.7c-1.7,0-2.9-1.2-2.9-3.5c0-2.6,1.6-3.5,2.9-3.5c1.5,0,1.8,0.8,2.9,0.8c1.2,0,2.1-1,2.1-2.1
		c0-0.8-0.4-1.4-0.9-1.8c-1-0.7-2.4-1.3-4.4-1.3c-3.6,0-7.1,2.4-7.1,7.9C44.6,47.3,48.1,49.7,51.6,49.7z"/>
	<path class="st2" d="M10.6,49.6h3.3c3.1,0,5-2.1,5-4.7c0-2.1-1.2-3-1.5-3.3c-0.1-0.1-0.2-0.2-0.2-0.3s0.1-0.2,0.2-0.3
		c0.4-0.5,0.9-1.3,0.9-2.5c0-2.8-1.9-4.3-4.8-4.3h-2.8c-1.8,0-2.7,1.1-2.7,2.5V47C7.9,48.5,8.7,49.6,10.6,49.6z M12,38.3
		c0-0.3,0.2-0.5,0.6-0.5h0.3c1,0,1.3,0.7,1.3,1.3s-0.3,1.3-1.3,1.3h-0.3c-0.4,0-0.6-0.2-0.6-0.5V38.3z M12,43.7
		c0-0.3,0.2-0.5,0.6-0.5H13c1.1,0,1.4,0.7,1.4,1.4c0,0.6-0.3,1.5-1.4,1.5h-0.4c-0.4,0-0.6-0.2-0.6-0.5V43.7z"/>
	<path class="st2" d="M71.4,49.7c1.5,0,2.3-1.1,2.3-2.5v-2.5c0-0.3,0.1-0.4,0.4-0.4s0.4,0.2,0.4,0.4c0.2,1.2,0.8,2.8,1.4,3.6
		c0.8,1,1.5,1.4,2.3,1.4c1.2,0,2.3-1,2.3-2.1c0-0.8-0.3-1.4-0.7-1.9c-0.8-1-1.3-1.7-1.6-2.5c-0.1-0.2,0-0.3,0.2-0.5
		c0.7-0.6,1.6-1.8,1.6-3.7c0-3-2.4-4.6-5.4-4.6H72c-1.8,0-2.7,1.1-2.7,2.5v10.4C69.1,48.6,69.9,49.7,71.4,49.7z M73.5,38.7
		c0-0.3,0.2-0.5,0.6-0.5h0.3c1,0,1.3,0.7,1.3,1.3s-0.3,1.3-1.3,1.3h-0.3c-0.4,0-0.6-0.2-0.6-0.5V38.7z"/>
	<path class="st2" d="M33.1,51c-2.6,0-4,2-4,4.4v13.8c0,2.4,1.4,4.4,4,4.4s4-2,4-4.4V55.4C37.1,53,35.7,51,33.1,51z"/>
	<path class="st2" d="M74.6,60h-1.1c-2.1,0-3.6,1-3.6,3c0,1.9,1.7,2.8,3,2.8c0.6,0,1.1,0.2,1.1,0.7c0,0.6-0.7,1-1.5,1
		c-2.6,0-4.4-1.8-4.4-5.1c0-3.7,2.4-5,4.3-5c2.3,0,2.7,1.2,4.3,1.2c1.9,0,3.1-1.5,3.1-3c0-1.1-0.5-2-1.3-2.6c-1.4-1-3.6-1.8-6.6-1.8
		c-5.4,0-10.7,3.4-10.7,11.4c0,7.6,5.3,11.2,10.5,11.2c5.5,0,8.9-3.4,8.9-8.3C80.4,62.2,78.5,60,74.6,60z"/>
	<path class="st2" d="M65.7,49.6c1.3,0,2.3-0.8,2.3-2.2s-1-2.1-2.3-2.1h-2.1c-0.4,0-0.6-0.2-0.6-0.5v-0.4c0-0.3,0.2-0.5,0.6-0.5h1.6
		c1.1,0,2-0.7,2-1.9s-0.9-1.9-2-1.9h-1.6c-0.4,0-0.6-0.2-0.6-0.5v-0.4c0-0.3,0.2-0.5,0.6-0.5h2.1c1.3,0,2.3-0.8,2.3-2.2
		s-1-2.1-2.3-2.1h-4.4c-1.8,0-2.7,1.1-2.7,2.5v10.3c0,1.4,0.9,2.5,2.7,2.5L65.7,49.6L65.7,49.6z"/>
	<path class="st2" d="M25.7,49.7c3.8,0,5.8-2.3,5.8-5.1v-7.8c0-1.4-0.8-2.5-2.3-2.5s-2.3,1.1-2.3,2.5v7.6c0,0.6-0.3,1.2-1.2,1.2
		s-1.1-0.7-1.1-1.2v-7.6c0-1.4-0.8-2.5-2.3-2.5S20,35.4,20,36.8v7.8C20,47.4,21.9,49.7,25.7,49.7z"/>
	<path class="st2" d="M42.1,49.7c1.2,0,2.3-1,2.3-2.1c0-0.8-0.3-1.4-0.7-1.9c-0.7-0.9-1.3-1.7-1.6-2.5c-0.1-0.2,0-0.3,0.2-0.5
		c0.7-0.6,1.6-1.8,1.6-3.7c0-3-2.4-4.6-5.4-4.6h-2.6c-1.8,0-2.7,1.1-2.7,2.5v10.4c0,1.4,0.8,2.5,2.3,2.5s2.3-1.1,2.3-2.5v-2.5
		c0-0.3,0.1-0.4,0.4-0.4s0.4,0.2,0.4,0.4c0.2,1.2,0.8,2.8,1.4,3.6C40.6,49.4,41.3,49.7,42.1,49.7z M38.2,40.8h-0.3
		c-0.4,0-0.6-0.2-0.6-0.5v-1.6c0-0.3,0.2-0.5,0.6-0.5h0.3c1,0,1.3,0.7,1.3,1.3C39.5,40,39.2,40.8,38.2,40.8z"/>
	<path class="st2" d="M55.5,51c-2.4,0-3.7,1.8-3.7,4v5c0,0.4-0.1,0.6-0.4,0.6c-0.2,0-0.3-0.1-0.5-0.4L47.6,54c-1.2-2.4-2.5-3-4-3
		c-2.4,0-3.8,1.8-3.8,4.1v14.4c0,2.3,1.3,4,3.7,4s3.7-1.8,3.7-4v-5c0-0.4,0.1-0.6,0.4-0.6c0.2,0,0.3,0.1,0.5,0.4l3.2,6.3
		c1.2,2.4,2.6,3,4,3c2.4,0,3.8-1.8,3.8-4.1V55.1C59.2,52.8,57.9,51,55.5,51z"/>
	<path class="st2" d="M77.2,87c0-0.6,0.5-1.1,1.2-1.1s1.2,0.5,1.2,1.1c0,0.7-0.5,1.2-1.2,1.2S77.2,87.7,77.2,87z M79.2,87
		c0-0.6-0.5-0.9-0.9-0.9s-0.9,0.3-0.9,0.9s0.5,0.9,0.9,0.9C78.8,87.9,79.2,87.6,79.2,87z M77.9,87.5v-1c0-0.1,0.1-0.1,0.1-0.1h0.3
		c0.3,0,0.4,0.2,0.4,0.4c0,0.2-0.1,0.3-0.3,0.4l0.3,0.3v0.1c0,0.1,0,0.1-0.1,0.1c0,0-0.1,0-0.1-0.1l-0.3-0.4l0,0v0.3
		c0,0.1-0.1,0.1-0.1,0.1C78,87.6,77.9,87.6,77.9,87.5z M78.3,87c0.1,0,0.2-0.1,0.2-0.2s-0.1-0.2-0.2-0.2h-0.2V87H78.3L78.3,87z"/>
</g>
</svg>
