<?xml version="1.0" encoding="utf-8"?>
<!-- Generator: Adobe Illustrator 16.0.0, SVG Export Plug-In . SVG Version: 6.00 Build 0)  -->
<!DOCTYPE svg PUBLIC "-//W3C//DTD SVG 1.1//EN" "http://www.w3.org/Graphics/SVG/1.1/DTD/svg11.dtd">
<svg version="1.1" xmlns="http://www.w3.org/2000/svg" xmlns:xlink="http://www.w3.org/1999/xlink" x="0px" y="0px" width="24px"
	 height="24px" viewBox="0 0 24 24" enable-background="new 0 0 24 24" xml:space="preserve">
<g id="圖層_2" display="none">
	<ellipse display="inline" fill="#CC2200" cx="12" cy="12" rx="12" ry="11.989"/>
</g>
<g id="圖層_1">
	<path fill="none" stroke="#FFFFFF" stroke-width="2" stroke-miterlimit="10" d="M3.906,3.516L5,3.531L6.083,5 M7,13h10l2.5-8H6.083
		 M7,13L6.083,5 M7,13l-2.293,2.293C4.077,15.923,4.523,17,5.414,17H17 M17,17c-1.104,0-2,0.896-2,2s0.896,2,2,2s2-0.896,2-2
		S18.104,17,17,17z M9,19c0,1.104-0.896,2-2,2s-2-0.896-2-2s0.896-2,2-2S9,17.896,9,19z"/>
</g>
<g id="圖層_3" display="none">
	<circle display="inline" fill="#FFFFFF" cx="7.028" cy="18.99" r="1.423"/>
	<circle display="inline" fill="#FFFFFF" cx="16.945" cy="18.99" r="1.423"/>
	<polygon display="inline" fill="#FFFFFF" points="6.115,5.278 7.25,12.258 16.209,12.833 20,5 	"/>
</g>
</svg>
