<?xml version="1.0" encoding="utf-8"?>
<!-- Generator: Adobe Illustrator 24.0.0, SVG Export Plug-In . SVG Version: 6.00 Build 0)  -->
<svg version="1.1" id="圖層_1" xmlns="http://www.w3.org/2000/svg" xmlns:xlink="http://www.w3.org/1999/xlink" x="0px" y="0px"
	 viewBox="0 0 26.7 26.7" style="enable-background:new 0 0 26.7 26.7;" xml:space="preserve">
<style type="text/css">
	.st0{fill:#CC2200;}
	.st1{fill:none;stroke:#FFFFFF;stroke-miterlimit:10;}
	.st2{fill:none;stroke:#FFFFFF;stroke-linecap:round;stroke-miterlimit:10;}
	.st3{fill:#FFFFFF;}
</style>
<path class="st0" d="M26.7,20c0,3.7-3,6.7-6.7,6.7H6.7C3,26.7,0,23.7,0,20V6.7C0,3,3,0,6.7,0H20c3.7,0,6.7,3,6.7,6.7V20z"/>
<g id="圖層_1_1_">
	<polyline class="st1" points="5.3,4.9 6.4,4.9 7.4,6.4 	"/>
	<polyline class="st1" points="8.4,14.4 18.4,14.4 20.9,6.4 7.4,6.4 	"/>
	<line class="st1" x1="8.4" y1="14.4" x2="7.4" y2="6.4"/>
	<path class="st2" d="M8.4,14.4l-2.3,2.3c-0.6,0.6-0.2,1.7,0.7,1.7h11.6"/>
	<circle class="st3" cx="18.4" cy="20.4" r="2"/>
	<circle class="st3" cx="8.4" cy="20.4" r="2"/>
</g>
<g id="圖層_3">
	<polygon class="st3" points="7.5,6.6 8.7,14.2 18.4,14.2 21.1,6.4 	"/>
</g>
</svg>
