<?xml version="1.0" encoding="utf-8"?>
<!-- Generator: Adobe Illustrator 24.0.0, SVG Export Plug-In . SVG Version: 6.00 Build 0)  -->
<svg version="1.1" id="圖層_1" xmlns="http://www.w3.org/2000/svg" xmlns:xlink="http://www.w3.org/1999/xlink" x="0px" y="0px"
	 viewBox="0 0 26.7 26.7" style="enable-background:new 0 0 26.7 26.7;" xml:space="preserve">
<style type="text/css">
	.st0{fill:#CC2200;}
	.st1{fill:#FFFFFF;}
</style>
<path class="st0" d="M26.7,20c0,3.7-3,6.7-6.7,6.7H6.7C3,26.7,0,23.7,0,20V6.7C0,3,3,0,6.7,0H20c3.7,0,6.7,3,6.7,6.7V20z"/>
<path class="st1" d="M17.4,8.4c0,2.2-1.8,4-4,4s-4-1.8-4-4s1.8-4,4-4S17.4,6.2,17.4,8.4z"/>
<path class="st1" d="M13.4,15.4c-3.9,0-7,3.1-7,7h14C20.4,18.5,17.2,15.4,13.4,15.4z"/>
</svg>
